# xmcd
#
# Track frame offsets:
#	150
#	18348
#	39845
#	55456
#	69911
#	87397
#	107818
#	125058
#	146112
#	163747
#	185837
#	199282
#	218505
#	235207
#	257041
#	277567
#	296841
#	314722
#
# Disc length: 4461 seconds
#
# Revision: 1
# Processed by: cddbd v1.5PL3 Copyright (c) Steve Scherf et al.
# Submitted via: MusicWizard 6.0.2
#
DISCID=15116b12
DTITLE=Aaliyah - In Memoriam
DYEAR=2002
DGENRE=R&B/Soul
TTITLE0=We Need A Resolution
TTITLE1=Try Again
TTITLE2=If Your Girl Only Knew
TTITLE3=Are You Feelin' Me
TTITLE4=Back and Forth
TTITLE5=One In A Million
TTITLE6=More Than A Woman
TTITLE7=Got To Give It Up
TTITLE8=The One I Gave My Heart To
TTITLE9=Four Pages Letter
TTITLE10=I Can Be
TTITLE11=Age Ain't Nothing But A Number
TTITLE12=You Got A Nerve
TTITLE13=At Your Best (You Are Love)
TTITLE14=I Care 4 You
TTITLE15=I Don't Wanna
TTITLE16=Never No More
TTITLE17=You Won't See Me Tonight Feat. Nas
EXTD=
EXTT0=
EXTT1=
EXTT2=
EXTT3=
EXTT4=
EXTT5=
EXTT6=
EXTT7=
EXTT8=
EXTT9=
EXTT10=
EXTT11=
EXTT12=
EXTT13=
EXTT14=
EXTT15=
EXTT16=
EXTT17=
PLAYORDER=
